<?xml version="1.0" encoding="utf-8"?>
<!-- Generator: Adobe Illustrator 16.0.0, SVG Export Plug-In . SVG Version: 6.00 Build 0)  -->
<!DOCTYPE svg PUBLIC "-//W3C//DTD SVG 1.1//EN" "http://www.w3.org/Graphics/SVG/1.1/DTD/svg11.dtd">
<svg version="1.1" id="Layer_1" xmlns="http://www.w3.org/2000/svg" xmlns:xlink="http://www.w3.org/1999/xlink" x="0px" y="0px"
	 width="50px" height="50px" viewBox="0 0 50 50" enable-background="new 0 0 50 50" xml:space="preserve">
<g id="Layer_1_1_" display="none">
	<g display="inline">
		<path fill="#166097" d="M40.32,20.861h-1.266v-8.08c0-2.43-1.979-4.408-4.408-4.408h-0.104L33.973,7.38
			c-0.535-0.932-0.816-1.972-0.816-3.008c0-2.385-2.172-4.325-4.84-4.325h-8.494c-2.668,0-4.839,1.94-4.839,4.324
			c0,1.036-0.283,2.076-0.817,3.008l-0.57,0.994h-0.105c-2.43,0-4.407,1.978-4.407,4.408v24.486c0,2.432,1.978,4.407,4.407,4.407
			h0.105l0.571,0.992c0.535,0.933,0.816,1.972,0.816,3.009c0,2.385,2.171,4.323,4.84,4.323h8.492c2.668,0,4.84-1.938,4.84-4.323
			c0-1.037,0.283-2.076,0.816-3.009l0.569-0.992h0.104c2.431,0,4.408-1.977,4.408-4.407v-8.08h1.266c1.14,0,2.063-0.927,2.063-2.064
			v-4.198C42.384,21.788,41.46,20.861,40.32,20.861z M37.391,37.27c0,1.51-1.23,2.741-2.742,2.741H13.491
			c-1.512,0-2.742-1.231-2.742-2.741V12.781c0-1.512,1.23-2.742,2.742-2.742h21.157c1.512,0,2.742,1.23,2.742,2.742v8.08v8.327
			V37.27z"/>
		<path fill="#166097" d="M14.079,17.532c0.213,0,0.426-0.082,0.589-0.245l3.33-3.33c0.326-0.325,0.326-0.852,0-1.177
			c-0.325-0.326-0.851-0.326-1.177,0l-3.33,3.33c-0.326,0.326-0.326,0.852,0,1.177C13.652,17.45,13.866,17.532,14.079,17.532z"/>
		<path fill="#166097" d="M14.079,21.694c0.213,0,0.426-0.082,0.589-0.244l1.665-1.666c0.325-0.326,0.325-0.852,0-1.177
			c-0.326-0.326-0.852-0.326-1.177,0l-1.665,1.665c-0.326,0.326-0.326,0.852,0,1.178C13.652,21.613,13.866,21.694,14.079,21.694z"/>
		<path fill="#166097" d="M16.818,16.941c-0.15,0.157-0.242,0.365-0.242,0.591c0,0.225,0.091,0.433,0.242,0.583
			c0.157,0.158,0.365,0.25,0.591,0.25c0.225,0,0.433-0.092,0.591-0.242c0.15-0.158,0.242-0.374,0.242-0.591
			c0-0.217-0.092-0.434-0.242-0.591C17.683,16.632,17.126,16.632,16.818,16.941z"/>
		<path fill="#166097" d="M18.485,16.455c0.162,0.162,0.375,0.244,0.589,0.244c0.212,0,0.426-0.082,0.588-0.244l2.498-2.498
			c0.326-0.325,0.326-0.852,0-1.177c-0.325-0.326-0.852-0.326-1.177,0l-2.498,2.498C18.16,15.604,18.16,16.129,18.485,16.455z"/>
		<path fill="#166097" d="M20.983,16.943l-7.493,7.493c-0.326,0.326-0.326,0.852,0,1.177c0.162,0.162,0.375,0.244,0.588,0.244
			c0.213,0,0.426-0.082,0.589-0.244l7.493-7.493c0.326-0.325,0.326-0.851,0-1.177C21.835,16.617,21.309,16.617,20.983,16.943z"/>
		<path fill="#166097" d="M22.654,15.275c-0.159,0.15-0.25,0.366-0.25,0.591c0,0.225,0.091,0.433,0.242,0.591
			c0.157,0.15,0.375,0.241,0.591,0.241c0.217,0,0.434-0.091,0.591-0.241c0.15-0.158,0.242-0.374,0.242-0.591
			c0-0.217-0.092-0.434-0.242-0.591C23.512,14.968,22.954,14.968,22.654,15.275z"/>
		<path fill="#166097" d="M25.146,12.78l-0.833,0.833c-0.325,0.325-0.325,0.851,0,1.177c0.163,0.163,0.375,0.244,0.589,0.244
			c0.214,0,0.426-0.082,0.588-0.244l0.832-0.833c0.326-0.325,0.326-0.852,0-1.177C25.997,12.455,25.472,12.455,25.146,12.78z"/>
	</g>
</g>
<g id="Layer_2" display="none">
	<g display="inline">
		<path fill="#8ACAEF" d="M36.633,0.09H14.376c-1.854,0-3.371,1.516-3.371,3.372v43.173c0,1.856,1.518,3.375,3.371,3.375h22.257
			c1.854,0,3.371-1.517,3.371-3.373V3.462C40.004,1.606,38.484,0.09,36.633,0.09z M21.944,2.521h7.121
			c0.226,0,0.406,0.183,0.406,0.409c0,0.225-0.182,0.408-0.406,0.408h-7.121c-0.225,0-0.408-0.183-0.408-0.408
			C21.536,2.703,21.72,2.521,21.944,2.521z M25.505,48.323c-0.932,0-1.686-0.755-1.686-1.688c0-0.932,0.754-1.685,1.686-1.685
			c0.931,0,1.685,0.753,1.685,1.685C27.189,47.568,26.436,48.323,25.505,48.323z M37.659,43.77H13.351V5.437h24.308V43.77z"/>
	</g>
	<line display="inline" fill="none" stroke="#8ACAEF" stroke-miterlimit="10" x1="34.167" y1="8.167" x2="17.75" y2="39.75"/>
	<line display="inline" fill="none" stroke="#8ACAEF" stroke-miterlimit="10" x1="34.167" y1="21.917" x2="25.958" y2="37.764"/>
	<line display="inline" fill="none" stroke="#8ACAEF" stroke-miterlimit="10" x1="23.325" y1="13.474" x2="15.621" y2="28.348"/>
</g>
<g id="Layer_3" display="none">
	<g display="inline">
		<path fill="#FFFFFF" d="M40.896,0H11.1C9.222,0,7.71,1.52,7.71,3.396v43.209C7.71,48.477,9.222,50,11.1,50h29.796
			c1.873,0,3.393-1.521,3.393-3.395V3.396C44.291,1.52,42.771,0,40.896,0z M26,48.729c-1.115,0-2.017-0.901-2.017-2.016
			c0-1.115,0.902-2.018,2.017-2.018c1.111,0,2.018,0.902,2.018,2.018C28.018,47.826,27.111,48.729,26,48.729z M40.857,42.928H11.143
			V4.08h29.714V42.928z"/>
	</g>
</g>
<g id="Layer_4">
	<path d="M37.459,0.175h-25c-2.297,0-4.167,1.869-4.167,4.167v41.667c0,2.298,1.87,4.166,4.167,4.166h25
		c2.297,0,4.166-1.868,4.166-4.166V4.341C41.625,2.043,39.756,0.175,37.459,0.175z M20.792,10.591h-4.167
		c-1.149,0-2.083-0.935-2.083-2.083c0-1.148,0.934-2.083,2.083-2.083h4.167c1.149,0,2.083,0.935,2.083,2.083
		C22.875,9.656,21.942,10.591,20.792,10.591z"/>
	<path d="M37.459,2.258h-25c-1.149,0-2.083,0.935-2.083,2.083v41.667c0,1.148,0.934,2.082,2.083,2.082h25
		c1.148,0,2.084-0.934,2.084-2.082V4.341C39.543,3.193,38.607,2.258,37.459,2.258z M20.792,12.675h-4.167
		c-2.297,0-4.167-1.869-4.167-4.167c0-2.298,1.87-4.167,4.167-4.167h4.167c2.297,0,4.167,1.869,4.167,4.167
		C24.959,10.806,23.089,12.675,20.792,12.675z"/>
	<path display="none" opacity="0.1" fill="#010101" enable-background="new    " d="M37.459,2.258h-3.125v35.481
		c0,3.415-2.77,6.186-6.186,6.186H10.375v2.084c0,1.148,0.934,2.082,2.083,2.082h25c1.149,0,2.084-0.934,2.084-2.082V4.341
		C39.543,3.193,38.607,2.258,37.459,2.258z"/>
	
		<linearGradient id="SVGID_1_" gradientUnits="userSpaceOnUse" x1="217.1855" y1="259.5479" x2="238.3281" y2="249.6886" gradientTransform="matrix(2.0833 0 0 -2.0833 -449.526 555.6207)">
		<stop  offset="0" style="stop-color:#FFFFFF;stop-opacity:0.2"/>
		<stop  offset="1" style="stop-color:#FFFFFF;stop-opacity:0"/>
	</linearGradient>
	<path fill="url(#SVGID_1_)" d="M37.459,0.175h-25c-2.297,0-4.167,1.869-4.167,4.167v41.667c0,2.298,1.87,4.166,4.167,4.166h25
		c2.297,0,4.166-1.868,4.166-4.166V4.341C41.625,2.043,39.756,0.175,37.459,0.175z M20.792,10.591h-4.167
		c-1.149,0-2.083-0.935-2.083-2.083c0-1.148,0.934-2.083,2.083-2.083h4.167c1.149,0,2.083,0.935,2.083,2.083
		C22.875,9.656,21.942,10.591,20.792,10.591z"/>
</g>
</svg>
