<?xml version="1.0" encoding="utf-8"?>
<!-- Generator: Adobe Illustrator 16.0.0, SVG Export Plug-In . SVG Version: 6.00 Build 0)  -->
<!DOCTYPE svg PUBLIC "-//W3C//DTD SVG 1.1//EN" "http://www.w3.org/Graphics/SVG/1.1/DTD/svg11.dtd">
<svg version="1.1" id="Layer_1" xmlns="http://www.w3.org/2000/svg" xmlns:xlink="http://www.w3.org/1999/xlink" x="0px" y="0px"
	 width="50px" height="50px" viewBox="0 0 50 50" enable-background="new 0 0 50 50" xml:space="preserve">
<g id="Layer_1_2_" display="none">
	<g id="Layer_1_1_" display="inline">
		<g>
			<path fill="#166097" d="M40.32,20.861h-1.266v-8.08c0-2.43-1.979-4.408-4.408-4.408h-0.104L33.973,7.38
				c-0.535-0.932-0.815-1.972-0.815-3.008c0-2.385-2.173-4.325-4.841-4.325h-8.494c-2.668,0-4.839,1.94-4.839,4.324
				c0,1.036-0.283,2.076-0.817,3.008l-0.57,0.994h-0.105c-2.43,0-4.407,1.978-4.407,4.408v24.486c0,2.432,1.978,4.406,4.407,4.406
				h0.105l0.571,0.992c0.535,0.934,0.816,1.973,0.816,3.009c0,2.386,2.171,4.323,4.84,4.323h8.492c2.668,0,4.84-1.938,4.84-4.323
				c0-1.036,0.283-2.075,0.816-3.009l0.568-0.992h0.104c2.432,0,4.408-1.977,4.408-4.406v-8.08h1.266
				c1.141,0,2.063-0.928,2.063-2.064v-4.198C42.384,21.788,41.46,20.861,40.32,20.861z M37.391,37.27
				c0,1.51-1.229,2.741-2.742,2.741H13.491c-1.512,0-2.742-1.231-2.742-2.741V12.781c0-1.512,1.23-2.742,2.742-2.742h21.157
				c1.512,0,2.742,1.23,2.742,2.742v8.08v8.327V37.27L37.391,37.27z"/>
			<path fill="#166097" d="M14.079,17.532c0.213,0,0.426-0.082,0.589-0.245l3.33-3.33c0.326-0.325,0.326-0.852,0-1.177
				c-0.325-0.326-0.851-0.326-1.177,0l-3.33,3.33c-0.326,0.326-0.326,0.852,0,1.177C13.652,17.45,13.866,17.532,14.079,17.532z"/>
			<path fill="#166097" d="M14.079,21.694c0.213,0,0.426-0.082,0.589-0.244l1.665-1.666c0.325-0.326,0.325-0.852,0-1.177
				c-0.326-0.326-0.852-0.326-1.177,0l-1.665,1.665c-0.326,0.326-0.326,0.852,0,1.178C13.652,21.613,13.866,21.694,14.079,21.694z"
				/>
			<path fill="#166097" d="M16.818,16.941c-0.15,0.157-0.242,0.365-0.242,0.591c0,0.225,0.091,0.433,0.242,0.583
				c0.157,0.158,0.365,0.25,0.591,0.25c0.225,0,0.433-0.092,0.591-0.242c0.15-0.158,0.242-0.374,0.242-0.591
				c0-0.217-0.092-0.434-0.242-0.591C17.683,16.632,17.126,16.632,16.818,16.941z"/>
			<path fill="#166097" d="M18.485,16.455c0.162,0.162,0.375,0.244,0.589,0.244c0.212,0,0.426-0.082,0.588-0.244l2.498-2.498
				c0.326-0.325,0.326-0.852,0-1.177c-0.325-0.326-0.852-0.326-1.177,0l-2.498,2.498C18.16,15.604,18.16,16.129,18.485,16.455z"/>
			<path fill="#166097" d="M20.983,16.943l-7.493,7.493c-0.326,0.326-0.326,0.852,0,1.177c0.162,0.162,0.375,0.244,0.588,0.244
				c0.213,0,0.426-0.082,0.589-0.244l7.493-7.493c0.326-0.325,0.326-0.851,0-1.177C21.835,16.617,21.309,16.617,20.983,16.943z"/>
			<path fill="#166097" d="M22.654,15.275c-0.159,0.15-0.25,0.366-0.25,0.591c0,0.225,0.091,0.433,0.242,0.591
				c0.157,0.15,0.375,0.241,0.591,0.241c0.217,0,0.434-0.091,0.591-0.241c0.15-0.158,0.242-0.374,0.242-0.591
				c0-0.217-0.092-0.434-0.242-0.591C23.512,14.968,22.954,14.968,22.654,15.275z"/>
			<path fill="#166097" d="M25.146,12.78l-0.833,0.833c-0.325,0.325-0.325,0.851,0,1.177c0.163,0.163,0.375,0.244,0.589,0.244
				c0.214,0,0.426-0.082,0.588-0.244l0.832-0.833c0.326-0.325,0.326-0.852,0-1.177C25.997,12.455,25.472,12.455,25.146,12.78z"/>
		</g>
	</g>
	<g id="Layer_2" display="inline">
		<g>
			<path fill="#FFFFFF" d="M36.633,0.09H14.376c-1.854,0-3.371,1.516-3.371,3.372v43.173c0,1.856,1.518,3.375,3.371,3.375h22.257
				c1.854,0,3.371-1.517,3.371-3.373V3.462C40.004,1.606,38.484,0.09,36.633,0.09z M21.944,2.521h7.121
				c0.227,0,0.406,0.183,0.406,0.409c0,0.225-0.182,0.408-0.406,0.408h-7.121c-0.225,0-0.408-0.183-0.408-0.408
				C21.536,2.703,21.72,2.521,21.944,2.521z M25.505,48.323c-0.932,0-1.686-0.755-1.686-1.688c0-0.932,0.754-1.685,1.686-1.685
				c0.931,0,1.685,0.753,1.685,1.685C27.189,47.568,26.436,48.323,25.505,48.323z M37.659,43.77H13.351V5.437h24.308V43.77z"/>
		</g>
	</g>
	<g id="Layer_3" display="inline">
		<g>
			<path fill="#FFFFFF" d="M40.896,0H11.1C9.222,0,7.71,1.52,7.71,3.396v43.209C7.71,48.477,9.222,50,11.1,50h29.796
				c1.873,0,3.393-1.521,3.393-3.395V3.396C44.291,1.52,42.771,0,40.896,0z M26,48.729c-1.115,0-2.017-0.9-2.017-2.016
				s0.902-2.018,2.017-2.018c1.111,0,2.018,0.902,2.018,2.018C28.018,47.826,27.111,48.729,26,48.729z M40.857,42.928H11.143V4.08
				h29.714V42.928z"/>
		</g>
	</g>
</g>
<g id="Layer_2_1_" display="none">
	<g display="inline">
		<g>
			<path fill="#FAAB76" d="M50,18.074h-2.703v-2.872H2.703v2.872H0v8.277h2.703v8.444h19.115l3.212-5.563l3.212,5.563h19.056v-8.444
				H50V18.074z M22.297,25.042c0,3.802-3.082,6.884-6.883,6.884h-3.125c-3.802,0-6.884-3.082-6.884-6.884v-0.084
				c0-3.802,3.082-6.884,6.884-6.884h3.125c3.801,0,6.883,3.082,6.883,6.884V25.042z M44.596,25.042
				c0,3.802-3.082,6.884-6.885,6.884h-3.125c-3.801,0-6.883-3.082-6.883-6.884v-0.084c0-3.802,3.082-6.884,6.883-6.884h3.125
				c3.803,0,6.885,3.082,6.885,6.884V25.042z"/>
			<path fill="#FAAB76" d="M15.449,20.777h-0.021h-3.083c-2.305,0-4.237,1.875-4.237,4.181v0.084c0,2.306,1.932,4.181,4.237,4.181
				h3.125c2.305,0,4.125-1.875,4.125-4.181v-0.084C19.595,22.652,17.754,20.777,15.449,20.777z"/>
			<path fill="#FAAB76" d="M37.746,20.777h-0.021h-3.082c-2.305,0-4.236,1.875-4.236,4.181v0.084c0,2.306,1.933,4.181,4.236,4.181
				h3.125c2.305,0,4.125-1.875,4.125-4.181v-0.084C41.893,22.652,40.051,20.777,37.746,20.777z"/>
		</g>
	</g>
</g>
<g id="Layer_3_1_" display="none">
	<g display="inline">
		<path fill="#6B6B6B" d="M47.516,18.847c1.375-1.032,2.5-0.467,2.5,1.251v28.134c0,1.718-1.125,2.283-2.5,1.25l-7.504-5.629
			c-1.373-1.031-2.5-3.281-2.5-5v-9.379c0-1.718,1.127-3.968,2.5-5L47.516,18.847z M6.252,4.469C2.8,4.469,0,7.268,0,10.721
			c0,3.452,2.799,6.252,6.252,6.252s6.252-2.8,6.252-6.252C12.504,7.268,9.706,4.469,6.252,4.469z M25.008,1.342
			c-4.316,0-7.814,3.498-7.814,7.815c0,4.316,3.498,7.816,7.814,7.816c4.317,0,7.814-3.5,7.814-7.816
			C32.822,4.84,29.325,1.342,25.008,1.342z M12.504,26.352h21.883v18.756c0,1.728-1.398,3.125-3.127,3.125H3.127
			C1.398,48.232,0,46.834,0,45.105V23.223c0-1.727,1.398-3.125,3.126-3.125H31.26c1.729,0,3.127,1.398,3.127,3.125H12.504V26.352z
			 M12.504,38.854c0-1.728-1.398-3.125-3.125-3.125c-1.728,0-3.126,1.397-3.126,3.125c0,1.729,1.398,3.127,3.126,3.127
			C11.106,41.979,12.504,40.581,12.504,38.854z"/>
	</g>
</g>
<g id="Layer_4" display="none">
	<g display="inline">
		<g>
			<path fill="#FFFFFF" d="M46.984,29.591h-0.113V25.47c0-12.049-9.822-21.853-21.872-21.853C12.95,3.617,3.127,13.42,3.127,25.47
				v4.121H3.015C1.353,29.591,0,30.833,0,32.497l0.006,7.705c0,1.664,1.353,3.059,3.015,3.059h0.206
				c0.31,1.563,1.507,2.343,2.936,2.343h1.655c1.663,0,3.123-1.552,3.123-3.215V30.145c0-1.687-1.488-2.896-3.123-2.896H7.424
				v-2.092C7.424,15.437,15.282,7.53,25,7.53s17.576,7.907,17.576,17.625v2.092h-0.395c-1.634,0-3.121,1.211-3.121,2.897v12.242
				c0,1.664,1.459,3.217,3.121,3.217h1.655c1.429,0,2.625-0.78,2.937-2.344h0.205c1.664,0,3.016-1.449,3.016-3.111L50,32.545
				C49.999,30.882,48.646,29.591,46.984,29.591z"/>
		</g>
	</g>
</g>
<g id="Layer_5" display="none">
	<g display="inline">
		<g>
			<path fill="#377C2B" d="M49.695,16.972l-9.555-9.554c-0.195-0.195-0.459-0.305-0.736-0.305s-0.543,0.11-0.738,0.306
				c-0.588,0.59-1.371,0.915-2.207,0.915c-1.725,0-3.125-1.402-3.125-3.125c0-0.834,0.324-1.62,0.915-2.209
				c0.407-0.407,0.407-1.066,0-1.473l-1.222-1.221c-0.406-0.407-1.065-0.407-1.473,0l-31.25,31.25c-0.407,0.407-0.407,1.065,0,1.473
				l1.221,1.222c0.195,0.194,0.46,0.306,0.736,0.306c0.277,0,0.543-0.109,0.739-0.307c0.588-0.59,1.371-0.914,2.208-0.914
				c1.723,0,3.125,1.4,3.125,3.125c0,0.834-0.326,1.619-0.916,2.209c-0.407,0.406-0.407,1.066,0,1.473l9.554,9.556
				c0.204,0.2,0.471,0.302,0.737,0.302s0.533-0.102,0.736-0.305l1.347-1.348l-3.862-3.861c-0.407-0.406-0.407-1.066,0-1.473
				c0.407-0.408,1.066-0.408,1.473,0l3.861,3.86l1.651-1.651l-3.861-3.861c-0.407-0.406-0.407-1.066,0-1.473
				c0.407-0.408,1.066-0.408,1.473,0l3.861,3.86l0.962-0.963c0.195-0.195,0.305-0.459,0.305-0.736c0-0.276-0.109-0.541-0.305-0.735
				l-2.455-2.455c-0.955-0.955-0.955-2.508,0-3.463c0.924-0.924,2.539-0.924,3.463,0l2.455,2.455c0.406,0.406,1.065,0.406,1.473,0
				l0.963-0.963l-3.861-3.861c-0.406-0.406-0.406-1.065,0-1.473c0.406-0.406,1.066-0.406,1.473,0l3.861,3.86l1.652-1.651
				l-3.861-3.861c-0.406-0.406-0.406-1.065,0-1.473c0.406-0.406,1.066-0.406,1.473,0l3.861,3.86l1.654-1.649l-3.861-3.861
				c-0.406-0.407-0.406-1.066,0-1.474c0.406-0.406,1.066-0.406,1.473,0l3.861,3.861l1.652-1.65l-3.861-3.862
				c-0.406-0.407-0.406-1.066,0-1.474c0.406-0.406,1.066-0.406,1.473,0l3.861,3.861l1.652-1.651l-3.861-3.861
				c-0.406-0.407-0.406-1.066,0-1.474c0.406-0.406,1.066-0.406,1.473,0l3.861,3.861l1.652-1.651l-3.861-3.861
				c-0.406-0.407-0.406-1.066,0-1.473c0.406-0.407,1.066-0.407,1.473,0l3.861,3.861l1.348-1.346
				C50.102,18.038,50.102,17.379,49.695,16.972z M21.57,34.07l-5.209,5.207c-0.203,0.203-0.47,0.307-0.736,0.307
				s-0.533-0.104-0.736-0.307l-6.25-6.25c-0.407-0.406-0.407-1.065,0-1.473l5.208-5.209c0.407-0.406,1.066-0.406,1.473,0l6.25,6.25
				C21.977,33.004,21.977,33.663,21.57,34.07z M30.424,25.216l-5.208,5.208c-0.204,0.203-0.47,0.305-0.737,0.305
				c-0.266,0-0.532-0.102-0.736-0.305l-6.25-6.25c-0.407-0.406-0.407-1.066,0-1.473l5.208-5.209c0.406-0.406,1.066-0.406,1.473,0
				l6.25,6.25C30.831,24.149,30.831,24.809,30.424,25.216z M39.277,16.361L34.07,21.57c-0.204,0.203-0.471,0.305-0.736,0.305
				c-0.268,0-0.533-0.102-0.736-0.305l-6.25-6.25c-0.408-0.407-0.408-1.066,0-1.473l5.207-5.208c0.407-0.407,1.066-0.407,1.473,0
				l6.25,6.25C39.686,15.295,39.686,15.955,39.277,16.361z"/>
		</g>
	</g>
</g>
<g id="Layer_6" display="none">
	<g display="inline">
		<g>
			<g>
				<path fill="#01487C" d="M34.666,14.775V1.042C34.666,0.466,34.201,0,33.625,0h-18.75c-0.576,0-1.042,0.466-1.042,1.042v13.734
					c-1.21,0.431-2.083,1.577-2.083,2.934v10.97c0,2.528,0.476,5.002,1.416,7.353l2.826,7.063c0.156,0.396,0.541,0.654,0.966,0.654
					h3.125v5.208c0,0.576,0.465,1.042,1.041,1.042h6.25c0.576,0,1.042-0.466,1.042-1.042V43.75h3.125
					c0.425,0,0.811-0.26,0.966-0.654l2.826-7.063c0.938-2.351,1.416-4.822,1.416-7.351V17.709
					C36.75,16.352,35.877,15.207,34.666,14.775z M32.584,14.583H15.917v-12.5h16.667V14.583L32.584,14.583z"/>
				<path fill="#01487C" d="M19.041,10.417h2.084c0.576,0,1.041-0.466,1.041-1.042V5.208c0-0.576-0.465-1.042-1.041-1.042h-2.084
					C18.466,4.167,18,4.632,18,5.208v4.167C18,9.951,18.466,10.417,19.041,10.417z"/>
				<path fill="#01487C" d="M27.375,10.417h2.084c0.575,0,1.041-0.466,1.041-1.042V5.208c0-0.576-0.466-1.042-1.041-1.042h-2.084
					c-0.576,0-1.041,0.466-1.041,1.042v4.167C26.334,9.951,26.799,10.417,27.375,10.417z"/>
			</g>
		</g>
	</g>
</g>
<g id="Layer_7" display="none">
	<g display="inline">
		<g>
			<g>
				<path fill="#B9AD97" d="M37.625,0h-25c-2.763,0-5,2.237-5,5v40c0,2.762,2.237,4.975,5,4.975l25,0.025c2.762,0,5-2.236,5-5V5
					C42.625,2.237,40.387,0,37.625,0z M25.125,5c2.764,0,5,2.237,5,5s-2.236,5-5,5c-2.763,0-5-2.237-5-5S22.362,5,25.125,5z
					 M25.125,45c-6.9,0-12.5-5.6-12.5-12.5s5.6-12.5,12.5-12.5c6.9,0,12.5,5.6,12.5,12.5S32.025,45,25.125,45z"/>
				<path fill="#B9AD97" d="M25.125,25c-4.138,0-7.5,3.361-7.5,7.5s3.362,7.5,7.5,7.5c4.139,0,7.5-3.361,7.5-7.5
					S29.264,25,25.125,25z"/>
			</g>
		</g>
	</g>
</g>
<g id="Layer_8">
	<g>
		<path d="M46.875,12c0-1.726-1.398-3.125-3.125-3.125h-3.125c-1.727,0-3.125,1.399-3.125,3.125h-1.563l-2.263-4.523
			c-0.528-1.058-1.61-1.727-2.795-1.727H19.119c-1.184,0-2.266,0.669-2.795,1.728L14.063,12H3.125C1.399,12,0,13.399,0,15.125v25
			c0,1.727,1.399,3.125,3.125,3.125h43.75c1.727,0,3.125-1.398,3.125-3.125v-25C50,13.399,48.602,12,46.875,12z M25,38.563
			c-6.041,0-10.938-4.896-10.938-10.938S18.959,16.688,25,16.688s10.938,4.896,10.938,10.938S31.041,38.563,25,38.563z"/>
		<circle cx="25" cy="27.625" r="6.25"/>
	</g>
</g>
</svg>
