<?xml version="1.0" encoding="utf-8"?>
<!-- Generator: Adobe Illustrator 16.0.0, SVG Export Plug-In . SVG Version: 6.00 Build 0)  -->
<!DOCTYPE svg PUBLIC "-//W3C//DTD SVG 1.1//EN" "http://www.w3.org/Graphics/SVG/1.1/DTD/svg11.dtd">
<svg version="1.1" id="Artwork" xmlns="http://www.w3.org/2000/svg" xmlns:xlink="http://www.w3.org/1999/xlink" x="0px" y="0px"
	 width="100px" height="100px" viewBox="0 0 100 100" enable-background="new 0 0 100 100" xml:space="preserve">
<g display="none">
	<path display="inline" d="M36.25,64.375c-5.469,0-9.902,4.434-9.902,9.902c0,5.468,4.434,9.901,9.902,9.901
		s9.902-4.434,9.902-9.901C46.152,68.809,41.699,64.375,36.25,64.375z M36.25,79.375c-2.813,0-5.117-2.285-5.117-5.117
		c0-2.813,2.285-5.117,5.117-5.117c2.813,0,5.117,2.285,5.117,5.117S39.063,79.375,36.25,79.375z"/>
	<path display="inline" d="M73.652,74.258c0-5.469-4.435-9.902-9.902-9.902s-9.902,4.435-9.902,9.902
		c0,5.469,4.435,9.902,9.902,9.902S73.652,79.727,73.652,74.258z M63.75,79.375c-2.813,0-5.117-2.285-5.117-5.117
		c0-2.813,2.285-5.117,5.117-5.117c2.813,0,5.117,2.285,5.117,5.117S66.582,79.375,63.75,79.375z"/>
	<path display="inline" d="M89.648,49.902c-1.582-9.395-9.316-16.328-18.867-16.914l-0.391-0.06c-0.138-0.02-0.273-0.039-0.41-0.039
		H52.227v-3.574c0-3.223,2.617-5.82,5.82-5.82h19.492c5.859,0,10.605-4.766,10.605-10.605c0-5.839-4.746-10.625-10.586-10.625
		H22.441c-1.328,0-2.402,1.074-2.402,2.402s1.074,2.383,2.402,2.383h55.098c3.223,0,5.82,2.617,5.82,5.82s-2.617,5.82-5.82,5.82
		H58.047c-5.859,0-10.605,4.766-10.605,10.605v3.574H30.469c-10.02,0-18.477,7.148-20.117,16.973L4.336,82.168
		c-0.176,0.879-0.273,1.777-0.273,2.656c0,7.109,5.781,12.91,12.91,12.91c4.297,0,8.301-2.129,10.664-5.625l2.91-4.043
		c0.781-1.074,0.527-2.56-0.547-3.34c-1.074-0.781-2.559-0.527-3.34,0.547l-2.969,4.102c-1.523,2.246-4.023,3.594-6.738,3.594
		c-4.473,0-8.125-3.633-8.125-8.125c0-0.566,0.059-1.133,0.176-1.738l6.035-32.401c1.27-7.539,7.754-13.027,15.41-13.027h39.297
		l0.313,0.059c0.099,0.02,0.176,0.02,0.273,0.039c7.246,0.391,13.359,5.84,14.57,12.969l6.035,32.422
		c0.117,0.547,0.176,1.113,0.176,1.68c0,4.473-3.633,8.125-8.125,8.125c-2.695,0-5.215-1.348-6.777-3.652l-3.125-4.336
		c-0.781-1.073-2.266-1.309-3.34-0.547c-1.074,0.781-1.309,2.267-0.547,3.34l3.086,4.277c2.402,3.574,6.406,5.703,10.703,5.703
		c7.109,0,12.91-5.781,12.91-12.91c0-0.897-0.099-1.777-0.273-2.617L89.648,49.902z"/>
	<circle display="inline" cx="61.855" cy="51.465" r="3.105"/>
	<circle display="inline" cx="74.531" cy="51.465" r="3.105"/>
	<path display="inline" d="M32.012,42.168c-1.328,0-2.402,1.074-2.402,2.402v4.023h-4.023c-1.328,0-2.402,1.074-2.402,2.384
		c0,1.327,1.074,2.401,2.402,2.401h4.023V57.4c0,1.328,1.074,2.402,2.402,2.402c1.328,0,2.402-1.074,2.402-2.402v-4.022h4.023
		c1.328,0,2.402-1.074,2.402-2.401c0-1.329-1.074-2.384-2.402-2.384h-4.023V44.57C34.414,43.242,33.34,42.168,32.012,42.168z"/>
	<circle display="inline" cx="68.203" cy="57.793" r="3.105"/>
	<circle display="inline" cx="68.203" cy="45.117" r="3.105"/>
</g>
<g display="none">
	<g display="inline">
		<g>
			<path d="M25.147,46.842c-4.569,0-8.285,3.716-8.285,8.285c0,1.145,0.928,2.072,2.071,2.072s2.071-0.928,2.071-2.072
				c0-2.282,1.856-4.142,4.142-4.142c1.144,0,2.072-0.928,2.072-2.072C27.219,47.77,26.291,46.842,25.147,46.842z"/>
			<path d="M74.857,46.842c-4.57,0-8.285,3.716-8.285,8.285c0,1.145,0.928,2.072,2.07,2.072c1.145,0,2.072-0.928,2.072-2.072
				c0-2.282,1.855-4.142,4.143-4.142c1.143,0,2.07-0.928,2.07-2.072C76.928,47.77,76,46.842,74.857,46.842z"/>
			<path d="M91.213,26.316c-0.896-4.806-5.08-8.471-10.143-8.471H18.934c-5.066,0-9.275,3.662-10.162,8.475
				c-4.814,0.891-8.479,5.1-8.479,10.166V73.77c0,5.707,4.648,10.355,10.356,10.355h20.712c3.293,0,5.257-1.826,6.703-4.143h23.874
				c1.445,2.316,3.408,4.143,6.701,4.143h20.713c5.713,0,10.355-4.648,10.355-10.355V36.486
				C99.711,31.412,96.041,27.195,91.213,26.316z M25.147,67.555c-6.852,0-12.427-5.575-12.427-12.428
				c0-6.851,5.576-12.427,12.427-12.427c6.852,0,12.428,5.576,12.428,12.427C37.575,61.979,31.999,67.555,25.147,67.555z
				 M40.172,75.84c2.021-4.465,3.836-8.285,9.838-8.285c6.001,0,7.814,3.82,9.835,8.285H40.172z M13.076,26.13
				c0.854-2.411,3.161-4.143,5.857-4.143H81.07c2.701,0,5.006,1.731,5.857,4.143H13.076z M74.857,67.555
				c-6.852,0-12.428-5.575-12.428-12.428c0-6.851,5.576-12.427,12.428-12.427s12.428,5.576,12.428,12.427
				C87.285,61.979,81.709,67.555,74.857,67.555z"/>
		</g>
	</g>
</g>
<g display="none">
	<circle display="inline" cx="62.968" cy="70.968" r="3.397"/>
	<circle display="inline" cx="74.862" cy="82.862" r="3.397"/>
	<circle display="inline" cx="74.862" cy="59.073" r="3.399"/>
	<path display="inline" d="M30.683,65.869v-5.096h-6.796v5.096c0,0.941-0.761,1.701-1.7,1.701h-5.098v6.795h5.098
		c0.938,0,1.7,0.76,1.7,1.699v5.098h6.796v-5.098c0-0.939,0.762-1.699,1.699-1.699h5.098V67.57h-5.098
		C31.444,67.57,30.683,66.811,30.683,65.869z"/>
	<path display="inline" d="M75.279,45.48H52.772V25.939c0-3.279,2.668-5.947,5.947-5.947s5.947,2.668,5.947,5.947v5.947
		c0,4.685,3.812,8.496,8.496,8.496c4.684,0,8.495-3.812,8.495-8.496V4.699C81.658,3.76,80.897,3,79.959,3
		c-0.938,0-1.699,0.76-1.699,1.699v27.187c0,2.811-2.286,5.098-5.097,5.098c-2.812,0-5.099-2.287-5.099-5.098v-5.947
		c0-5.152-4.191-9.345-9.345-9.345s-9.346,4.193-9.346,9.345V45.48H25.537c-14.028,0-25.44,11.413-25.44,25.44
		c0,12.148,8.851,25.27,22.027,25.441h0.355c3.605,0,9.687-0.609,15.942-2.322c7.252-1.988,16.743-1.986,23.971-0.002
		c6.156,1.693,13.104,2.324,16.036,2.324h0.27c10.414-0.18,21.652-9.957,21.652-25.441C100.35,56.893,89.103,45.48,75.279,45.48z
		 M74.862,52.276c3.748,0,6.796,3.05,6.796,6.798s-3.048,6.795-6.796,6.795c-3.749,0-6.798-3.047-6.798-6.795
		S71.113,52.276,74.862,52.276z M40.878,76.064c0,0.941-0.762,1.701-1.699,1.701h-5.098v5.096c0,0.939-0.761,1.699-1.699,1.699
		H22.187c-0.938,0-1.699-0.76-1.699-1.699v-5.096H15.39c-0.938,0-1.699-0.76-1.699-1.701V65.869c0-0.939,0.761-1.699,1.699-1.699
		h5.097v-5.096c0-0.941,0.762-1.699,1.699-1.699h10.195c0.938,0,1.699,0.758,1.699,1.699v5.096h5.098
		c0.938,0,1.699,0.76,1.699,1.699V76.064z M47.675,55.674c-0.938,0-1.699-0.758-1.699-1.698c0-0.939,0.761-1.699,1.699-1.699h7.869
		c0.938,0,1.698,0.76,1.698,1.699c0,0.94-0.761,1.698-1.698,1.698H47.675z M62.968,77.766c-3.749,0-6.797-3.049-6.797-6.797
		c0-3.75,3.048-6.799,6.797-6.799c3.748,0,6.796,3.049,6.796,6.799C69.764,74.717,66.716,77.766,62.968,77.766z M74.862,89.658
		c-3.749,0-6.798-3.047-6.798-6.797c0-3.748,3.049-6.797,6.798-6.797c3.748,0,6.796,3.049,6.796,6.797
		C81.658,86.611,78.61,89.658,74.862,89.658z M86.756,77.766c-3.748,0-6.797-3.049-6.797-6.797c0-3.75,3.049-6.799,6.797-6.799
		c3.749,0,6.798,3.049,6.798,6.799C93.554,74.717,90.505,77.766,86.756,77.766z"/>
	<circle display="inline" cx="86.756" cy="70.968" r="3.397"/>
</g>
<g display="none">
	<path display="inline" d="M75.42,94.644c1.367,1.022,1.088,1.858-0.619,1.858H37.6c-1.708,0-1.986-0.836-0.618-1.858l7.436-5.583
		c1.368-1.022,2.482-3.251,2.482-4.96v-3.099c0-1.708,1.394-3.101,3.101-3.101h12.4c1.707,0,3.102,1.393,3.102,3.101v3.099
		c0,1.708,1.113,3.938,2.482,4.96L75.42,94.644z M99.602,9.698v58.902c0,3.427-2.773,6.199-6.199,6.199H31.399v15.503
		c0,3.426-2.776,6.199-6.2,6.199H6.599c-3.424,0-6.201-2.773-6.201-6.199V22.099c0-3.424,2.776-6.2,6.201-6.2h6.2V9.698
		c0-3.423,2.773-6.2,6.2-6.2h74.404C96.828,3.498,99.602,6.275,99.602,9.698z M6.599,28.299h18.601v-6.2H6.599V28.299z M6.599,40.7
		h18.601v-6.2H6.599V40.7z M12.798,74.8c0-1.712-1.386-3.099-3.1-3.099c-1.714,0-3.1,1.387-3.1,3.099c0,1.716,1.386,3.102,3.1,3.102
		C11.412,77.901,12.798,76.516,12.798,74.8z M93.402,15.899c0-3.428-2.773-6.201-6.201-6.201H25.199
		c-3.427,0-6.201,2.773-6.201,6.201h6.201c3.424,0,6.2,2.776,6.2,6.2V65.5h55.802c3.428,0,6.201-2.772,6.201-6.2V15.899
		L93.402,15.899z"/>
</g>
<g display="none">
	<path display="inline" d="M50.582,1.122c-26.247,0-48.419,21.362-48.419,46.648c0,14.255,7.08,31.283,18.036,43.377l0.309,0.342
		l0.452-0.09c0.116-0.021,2.625-0.55,3.673-2.469c2.571,2.106,4.853,2.313,7.253,1.452c1.067,2.054,1.482,4.29-1.378,5.102
		c-2.694,0.767-6.293-0.229-8.95-0.632c-4.428-0.672-13.81-0.867-18.283-0.7c-2.105,0.079-2.113,3.356,0,3.276
		c5.4-0.2,15.546,0.335,20.888,1.094c2.673,0.379,6.085,0.905,8.647-0.339c4.425-2.15,3.68-5.816,1.899-9.213
		c1.337-0.815,2.762-1.846,4.307-2.952c-4.284-1.882-9.893-10.3-13.724-17.64c-2.711-5.196-8.014-16.209-7.416-21.776
		c-3.311,2.273-5.888,4.254-7.285,6.853c-0.387-2.452-0.595-4.857-0.595-7.185c0-20.038,20.985-33.497,40.583-33.497
		c24.276,0,40.58,17.32,40.58,33.497c0,2.314-0.188,4.686-0.548,7.084c-1.407-2.55-3.962-4.51-7.23-6.752
		c0.598,5.567-4.704,16.58-7.416,21.776c-3.829,7.34-9.44,15.76-13.723,17.64c5.886,4.224,9.829,7.19,15.063,2.313
		c1.071,1.663,3.019,2.537,3.117,2.578l0.543,0.233l0.394-0.441C92.078,78.652,99,61.802,99,47.768
		C99,22.482,76.827,1.122,50.582,1.122z"/>
	<path display="inline" d="M20.968,44.928c-0.207,0-0.389,0.048-0.558,0.123c-0.061,0.027-0.126,0.046-0.182,0.082
		c-2.381,1.559,0.822,11.567,6.52,22.487c5.2,9.965,11.105,17.155,13.909,17.155c0.052,0,0.099-0.016,0.149-0.02
		c0.207-0.022,0.401-0.074,0.569-0.184c0.183-0.121,0.327-0.308,0.452-0.527c0.006-0.013,0.013-0.03,0.019-0.043
		c1.437-2.668-1.246-11.997-6.477-22.021C30.176,52.025,23.851,44.926,20.968,44.928z"/>
	<path display="inline" d="M74.516,67.619c5.698-10.92,8.9-20.931,6.52-22.487c-0.057-0.035-0.121-0.056-0.183-0.082
		c-0.168-0.074-0.35-0.123-0.556-0.123c-2.882,0-9.209,7.098-14.402,17.051c-5.229,10.027-7.914,19.356-6.477,22.023
		c0.006,0.013,0.014,0.029,0.02,0.042c0.124,0.221,0.269,0.41,0.451,0.527c0.172,0.112,0.37,0.166,0.582,0.186
		c0.044,0.005,0.087,0.02,0.136,0.02C63.409,84.776,69.315,77.584,74.516,67.619z"/>
	<path d="M53.115,20.661c-1.692-0.288-3.076,0.958-3.076,2.675v17.737c-1.001-0.367-2.078-0.579-3.208-0.579
		c-5.153,0-9.331,4.178-9.331,9.333c0,5.153,4.178,9.331,9.331,9.331c3.777,0,7.024-2.243,8.491-5.47
		c0.713-1.561,0.814-4.38,0.822-6.096c0.018-5.488,0.018-16.32,0.018-16.32c12.057,0,11.335,7.225,9.923,11.374
		c-0.552,1.626-0.224,1.897,0.938,0.632C81.735,27.254,61.25,22.045,53.115,20.661z"/>
</g>
<g>
	<g>
		<g>
			<path d="M4,0v57.018h51.063V0H4z M26.944,48.761l-5.142-3.381l7.182-10.919H18.468l13.699-19.584l5.041,3.525l-6.928,9.908
				h10.112L26.944,48.761z"/>
		</g>
	</g>
	<g>
		<g>
			<rect x="68.713" y="39.791" width="27.754" height="14.968"/>
		</g>
	</g>
	<g>
		<g>
			<path d="M4,63.17v19.472h21.98v0.002h6.152v-0.002h22.93V63.17H4L4,63.17z M32.606,75.651h-6.973v-6.153h6.973V75.651z"/>
		</g>
	</g>
	<g>
		<g>
			<path d="M79.512,60.912v27.152c0,3.244-2.64,5.884-5.882,5.884H40.104c-3.402,0-6.315-2.143-7.458-5.151h-6.384
				c1.311,6.441,7.02,11.304,13.841,11.304H73.63c6.636,0,12.034-5.399,12.034-12.036V60.912H79.512z"/>
		</g>
	</g>
	<g>
		<g>
			<path d="M71.702,21.33v12.309h21.773V21.33H71.702L71.702,21.33z M81.942,29.255h-3.02V26.65h3.02V29.255z M86.254,29.255h-3.018
				V26.65h3.018V29.255z"/>
		</g>
	</g>
</g>
</svg>
